<?xml version="1.0" encoding="utf-8" ?>
<svg baseProfile="full" height="100%" version="1.1" viewBox="0,0,1000,120" width="100%" xmlns="http://www.w3.org/2000/svg" xmlns:ev="http://www.w3.org/2001/xml-events" xmlns:xlink="http://www.w3.org/1999/xlink"><defs /><rect fill="white" height="120" width="1000" x="0" y="0" /><path d="M0,0 M25.597827911376953,57.067020416259766 L24.94690704345703,56.8825798034668 L23.855430603027344,56.72469711303711 L22.42668914794922,56.745880126953125 L20.920352935791016,57.12432098388672 L19.46109390258789,57.91737747192383 L18.160903930664062,59.10350799560547 L17.127574920654297,60.60392761230469 L16.477367401123047,62.293460845947266 L16.28890037536621,63.98171615600586 L16.58308982849121,65.47273254394531 L17.32029914855957,66.59757232666016 L18.401906967163086,67.22135162353516 L19.731895446777344,67.27471923828125 L21.188997268676758,66.72721862792969 L22.68408966064453,65.60289001464844 L24.124967575073242,63.99433135986328 L25.413623809814453,62.05824661254883 L26.459012985229492,60.03008270263672 L27.212663650512695,58.163230895996094 L27.65948486328125,56.67558670043945 L27.853748321533203,55.716514587402344 L27.85741424560547,55.359230041503906 L27.743186950683594,55.60585021972656 L27.574373245239258,56.450374603271484 L27.398113250732422,57.82440185546875 L27.25634002685547,59.60357666015625 L27.188838958740234,61.60561752319336 L27.24751091003418,63.59677505493164 L27.47549057006836,65.3268051147461 L27.87864112854004,66.62152099609375 L28.29759979248047,67.39462280273438 L28.613378524780273,67.72993469238281 M34.20468521118164,45.0 L34.20196533203125,45.08296203613281 L34.19349670410156,45.46284484863281 L34.163719177246094,46.33778762817383 L34.08681106567383,47.806392669677734 L33.95415115356445,49.822906494140625 L33.77710723876953,52.2441291809082 L33.59913635253906,54.88029479980469 L33.46317672729492,57.539329528808594 L33.409881591796875,60.04409408569336 L33.439876556396484,62.214115142822266 L33.54390335083008,63.91834259033203 L33.72383499145508,65.05303955078125 L33.98416519165039,65.55142211914062 L34.33749008178711,65.3887710571289 L34.831912994384766,64.60710906982422 L35.504669189453125,63.31982421875 L36.38068771362305,61.7319221496582 L37.47613525390625,60.0698127746582 L38.748085021972656,58.54884719848633 L40.11491394042969,57.34513854980469 L41.482765197753906,56.587406158447266 L42.73854064941406,56.350921630859375 L43.774192810058594,56.66475296020508 L44.496437072753906,57.47627639770508 L44.83021545410156,58.69218826293945 L44.72447204589844,60.17555618286133 L44.17485046386719,61.77961730957031 L43.210845947265625,63.35639190673828 L41.9077033996582,64.7581558227539 L40.38166046142578,65.8476791381836 L38.78157424926758,66.56262969970703 L37.266868591308594,66.85176086425781 L36.00340270996094,66.75615692138672 L35.107120513916016,66.37846374511719 L34.60118103027344,65.9483413696289 L34.4033203125,65.62300872802734 M52.04888153076172,57.60646057128906 L51.89514923095703,57.33888244628906 L51.54121398925781,57.00193405151367 L50.92200469970703,56.758018493652344 L50.04424285888672,56.824588775634766 L48.96759796142578,57.28679656982422 L47.83855438232422,58.15044021606445 L46.83949279785156,59.33662414550781 L46.14574432373047,60.738563537597656 L45.89515686035156,62.22526550292969 L46.154598236083984,63.66600799560547 L46.9027099609375,64.9493408203125 L48.12499237060547,65.92012786865234 L49.704246520996094,66.4691390991211 L51.468894958496094,66.55299377441406 L52.958656311035156,66.36177825927734 L53.91950225830078,66.10530853271484 M58.428802490234375,47.82569122314453 L58.410606384277344,47.85662841796875 L58.37226867675781,48.09905242919922 L58.307525634765625,48.72446060180664 L58.22065734863281,49.84856033325195 L58.12818908691406,51.45903778076172 L58.066497802734375,53.479225158691406 L58.051124572753906,55.77710723876953 L58.09381866455078,58.205257415771484 L58.17292022705078,60.6104850769043 L58.2471923828125,62.828182220458984 L58.289329528808594,64.7189712524414 L58.27790069580078,66.13079833984375 L58.188331604003906,66.9561538696289 L58.02301788330078,67.1990966796875 L57.84789276123047,67.08536529541016 L57.710227966308594,66.85736083984375 M54.604644775390625,60.63600540161133 L54.77881622314453,60.63955307006836 L55.217857360839844,60.67054748535156 L56.02556610107422,60.738651275634766 L57.22923278808594,60.8377685546875 L58.783050537109375,60.93684768676758 L60.59376525878906,60.98771286010742 L62.55152130126953,60.95126724243164 L64.53108215332031,60.79794692993164 L66.41607666015625,60.504146575927734 L68.09083557128906,60.05735397338867 L69.4227066040039,59.45780944824219 L70.31299591064453,58.72698211669922 L70.710205078125,57.92832565307617 L70.60111999511719,57.166542053222656 L70.01316833496094,56.56492614746094 L69.02598571777344,56.25227737426758 L67.73960876464844,56.315711975097656 L66.2986068725586,56.78188705444336 L64.8964614868164,57.62154006958008 L63.722145080566406,58.76171875 L62.92186737060547,60.08977127075195 L62.61009216308594,61.50867462158203 L62.82464599609375,62.90653610229492 L63.539344787597656,64.18006896972656 L64.69023895263672,65.2406005859375 L66.15330505371094,66.0281753540039 L67.82757568359375,66.4443588256836 L69.58827209472656,66.46450805664062 L71.30290985107422,66.110107421875 L72.63784790039062,65.62989044189453 L73.45155334472656,65.22981262207031 M77.35649871826172,57.30194854736328 L76.8782730102539,57.164791107177734 L76.03396606445312,57.023990631103516 L74.89673614501953,56.97214889526367 L73.71902465820312,57.106075286865234 L72.70838165283203,57.4311408996582 L72.06623077392578,57.917179107666016 L71.91743469238281,58.52757263183594 L72.31328582763672,59.22684097290039 L73.20256805419922,59.98331832885742 L74.46710205078125,60.765079498291016 L75.94764709472656,61.55622100830078 L77.46831512451172,62.36088180541992 L78.84972381591797,63.183563232421875 L79.92630004882812,64.0002212524414 L80.58028411865234,64.78123474121094 L80.73978424072266,65.48297119140625 L80.41706085205078,66.07762145996094 L79.67608642578125,66.55229187011719 L78.6227798461914,66.89633178710938 L77.39453887939453,67.09932708740234 L76.15702819824219,67.16944885253906 L75.0442123413086,67.1259536743164 L74.22940826416016,66.97547149658203 L73.81495666503906,66.7243881225586 L73.81964874267578,66.38428497314453 L74.04976654052734,66.06033325195312 L74.3138427734375,65.82778930664062 M87.73436737060547,49.6123046875 L87.83236694335938,49.40281677246094 L87.94647979736328,49.25578308105469 L88.03849029541016,49.37738800048828 L88.06560516357422,49.99407958984375 L88.03959655761719,51.140865325927734 L87.97850799560547,52.76725769042969 L87.90716552734375,54.761070251464844 L87.8265609741211,57.00623321533203 L87.7400131225586,59.36094284057617 L87.64654541015625,61.693115234375 L87.53437805175781,63.85200881958008 L87.39533996582031,65.69729614257812 L87.23845672607422,67.12689208984375 L87.0743408203125,68.09925079345703 L86.940673828125,68.63655853271484 L86.85884094238281,68.85757446289062 M83.52684020996094,59.88009262084961 L83.7180404663086,59.64851760864258 L84.15276336669922,59.325233459472656 L84.9030990600586,58.99789047241211 L85.9837646484375,58.795772552490234 L87.38858032226562,58.73671340942383 L89.07000732421875,58.81972885131836 L90.93553924560547,58.99692153930664 L92.8674087524414,59.2353515625 L94.77114868164062,59.52043914794922 L96.26948547363281,59.77155685424805 L97.20228576660156,59.942909240722656 " fill="none" stroke="blue" stroke-linecap="round" stroke-width="2" /></svg>