<?xml version="1.0" encoding="utf-8" ?>
<svg baseProfile="full" height="100%" version="1.1" viewBox="0,0,1000,120" width="100%" xmlns="http://www.w3.org/2000/svg" xmlns:ev="http://www.w3.org/2001/xml-events" xmlns:xlink="http://www.w3.org/1999/xlink"><defs /><rect fill="white" height="120" width="1000" x="0" y="0" /><path d="M0,0 M15.460222244262695,68.28617095947266 L15.368907928466797,67.99468994140625 L15.254714965820312,67.31590270996094 L15.163328170776367,66.14176177978516 L15.15364933013916,64.48123168945312 L15.270585060119629,62.40337371826172 L15.507810592651367,60.01291275024414 L15.858420372009277,57.439083099365234 L16.31305694580078,54.820289611816406 L16.83273696899414,52.31426239013672 L17.350393295288086,50.09758377075195 L17.84990692138672,48.3306884765625 L18.283817291259766,47.131248474121094 L18.664573669433594,46.56943893432617 L19.02471160888672,46.67169189453125 L19.38713264465332,47.442710876464844 L19.73224639892578,48.868316650390625 L20.06504249572754,50.88179397583008 L20.363195419311523,53.366050720214844 L20.64471435546875,56.145729064941406 L20.93120574951172,59.018577575683594 L21.23553466796875,61.77412796020508 L21.550668716430664,64.22351837158203 L21.870136260986328,66.22592163085938 L22.148723602294922,67.64391326904297 L22.337535858154297,68.42216491699219 L22.386959075927734,68.59757232666016 L22.337053298950195,68.42933654785156 L22.25094985961914,68.17133331298828 M14.520870208740234,62.27009201049805 L14.686633110046387,62.321693420410156 L15.12328052520752,62.342166900634766 L15.926942825317383,62.273597717285156 L17.131845474243164,62.0439338684082 L18.639957427978516,61.67152786254883 L20.26470947265625,61.20006561279297 L21.589494705200195,60.78202438354492 L22.41128158569336,60.5049934387207 M27.467124938964844,45.0 L27.563581466674805,45.23251724243164 L27.723175048828125,45.82618713378906 L27.91785430908203,46.90776062011719 L28.09221839904785,48.501747131347656 L28.24595832824707,50.539344787597656 L28.371807098388672,52.88077926635742 L28.4915771484375,55.352046966552734 L28.630878448486328,57.75981903076172 L28.796894073486328,59.90277099609375 L28.983198165893555,61.627986907958984 L29.20235824584961,62.82277297973633 L29.443096160888672,63.42801284790039 L29.72199249267578,63.43844223022461 L30.079971313476562,62.883880615234375 L30.57132339477539,61.832862854003906 L31.242958068847656,60.43355178833008 L32.124267578125,58.88957595825195 L33.18998336791992,57.43367004394531 L34.39030456542969,56.293304443359375 L35.647518157958984,55.63460159301758 L36.8825569152832,55.537864685058594 L38.002235412597656,56.003662109375 L38.91606140136719,56.960113525390625 L39.52428436279297,58.30634689331055 L39.750343322753906,59.92206954956055 L39.54437255859375,61.66202926635742 L38.91836929321289,63.36642837524414 L37.916500091552734,64.87078857421875 L36.643611907958984,66.02726745605469 L35.220733642578125,66.76467895507812 L33.76554870605469,67.08723449707031 L32.42769241333008,67.00472259521484 L31.353126525878906,66.58106994628906 L30.629840850830078,65.90919494628906 L30.25955581665039,65.25130462646484 L30.14670181274414,64.78358459472656 M47.264434814453125,55.134796142578125 L46.930057525634766,54.91571807861328 L46.329463958740234,54.69061279296875 L45.48746871948242,54.635040283203125 L44.518123626708984,54.95206832885742 L43.504512786865234,55.69630432128906 L42.57051467895508,56.85551834106445 L41.85028076171875,58.33910369873047 L41.44702911376953,60.00456619262695 L41.4477653503418,61.68804931640625 L41.8848762512207,63.202178955078125 L42.75139617919922,64.39866638183594 L44.045413970947266,65.14271545410156 L45.78969192504883,65.34757995605469 L47.430206298828125,65.20960998535156 L48.614463806152344,64.95442199707031 " fill="none" stroke="red" stroke-linecap="round" stroke-width="2" /></svg>