<svg viewBox="0 0 1000 120" xmlns="http://www.w3.org/2000/svg">
<path d="M0,0 M14.82456,50.556324 L14.708665,50.337883 L14.538003,50.133507 L14.329667,50.130234 L14.113975,50.561954 L13.881406,51.536354 L13.626235,53.096493 L13.326484,55.193066 L12.987869,57.733112 L12.603901,60.55036 L12.195531,63.44196 L11.815323,66.19423 L11.525853,68.54117 L11.384405,70.24885 L11.4150305,71.19797 L11.531454,71.533966 L11.65343,71.520424 M13.909383,48.614647 L14.043434,48.32669 L14.352084,47.998127 L14.895483,47.813667 L15.66388,47.993942 L16.629725,48.598904 L17.716963,49.620693 L18.842258,50.99873 L19.91999,52.69312 L20.888338,54.64744 L21.68684,56.78257 L22.29993,58.990387 L22.719677,61.147884 L22.957546,63.124763 L23.036556,64.809006 L22.997925,66.13837 L22.863861,67.02768 L22.670532,67.43369 L22.44546,67.38869 L22.250961,67.118286 L22.120564,66.82824 M14.364519,60.024242 L14.444921,60.04773 L14.775566,60.043125 L15.468548,59.96382 L16.634212,59.737335 L18.21443,59.353226 L20.041035,58.84239 L21.605732,58.37146 L22.63229,58.04993 M28.86443,45 L28.983421,45.19036 L29.172676,45.659843 L29.403156,46.510143 L29.615156,47.766567 L29.800339,49.41137 L29.960293,51.386196 L30.121933,53.61981 L30.280518,56.00975 L30.433662,58.43878 L30.556803,60.741734 L30.641474,62.74311 L30.682964,64.29646 L30.693592,65.303154 L30.677015,65.70975 L30.665482,65.523544 L30.679615,64.760025 L30.751171,63.48075 L30.948387,61.831074 L31.31602,59.98107 L31.897564,58.10644 L32.724495,56.375572 L33.765556,54.917538 L34.942566,53.84149 L36.180626,53.257076 L37.36376,53.21346 L38.409927,53.713684 L39.255768,54.717697 L39.839054,56.142597 L40.112026,57.857937 L40.062622,59.719845 L39.688484,61.547123 L39.01644,63.174572 L38.087044,64.48288 L36.947063,65.41236 L35.670986,65.95227 L34.368347,66.11715 L33.172836,65.95118 L32.201004,65.53506 L31.563992,65.084496 L31.24529,64.75171 M47.36759,53.84391 L47.091805,53.618534 L46.570213,53.34478 L45.798912,53.173515 L44.864174,53.304337 L43.837677,53.82678 L42.81127,54.76237 L41.894547,56.05263 L41.211617,57.60349 L40.87491,59.27984 L40.96623,60.916336 L41.5159,62.34838 L42.483665,63.429676 L43.794052,64.05629 L45.325333,64.19221 L46.946938,63.8845 L48.519615,63.180183 L49.943924,62.115032 L50.990486,61.075966 L51.600616,60.310936 z" fill="none" linecap="round" stroke="red" stroke-width="2"/>
</svg>